<svg xmlns="http://www.w3.org/2000/svg" width="38" height="37" fill="none" viewBox="0 0 38 37" class="h-14 w-auto text-white-100"><path fill="currentColor" d="M28.361 9.25c0-3.292-1.81-6.363-4.727-8.014A9.604 9.604 0 0018.909 0a9.616 9.616 0 00-4.726 1.235 9.372 9.372 0 00-3.73 3.888 9.43 9.43 0 00-.44 1.013 9.086 9.086 0 00-.371 1.293 8.973 8.973 0 00-.187 1.821h18.907zM9.455 27.75c0 3.292 1.81 6.363 4.727 8.014A9.604 9.604 0 0018.907 37a9.615 9.615 0 004.726-1.235 9.37 9.37 0 003.722-3.874l.007-.014a9.475 9.475 0 00.44-1.013 9.081 9.081 0 00.372-1.293 8.975 8.975 0 00.187-1.822H9.455z"></path><path fill="currentColor" d="M28.361 27.75c3.365 0 6.504-1.773 8.191-4.626a9.086 9.086 0 00.001-9.247 9.397 9.397 0 00-3.958-3.642l-.014-.008a9.845 9.845 0 00-1.035-.43 9.575 9.575 0 00-1.322-.364 9.563 9.563 0 00-1.862-.183v18.5zM9.454 9.25c-3.365 0-6.503 1.773-8.19 4.626a9.087 9.087 0 00-.002 9.247 9.396 9.396 0 004.7 3.965 9.575 9.575 0 001.63.479c.607.12 1.23.182 1.861.182V9.25h.001z"></path></svg>